<svg xmlns="http://www.w3.org/2000/svg" width="110.885" height="57.11"><path d="M96.6 50.114c-2.056-1.968-4.082-3.91-7.354-3.91a5.079 5.079 0 010-10.157 17.737 17.737 0 016.647 1.171 5.991 5.991 0 004.873-5.848V16.081a5.981 5.981 0 00-5.967-5.95H79.674a5.984 5.984 0 00-5.967 5.864v.086A16.031 16.031 0 0169 27.452a16.221 16.221 0 01-3.463 2.636 78.55 78.55 0 014.111 3.433 86.663 86.663 0 0112.1 13.46H68.8a68.446 68.446 0 00-5.877-5.939 87.762 87.762 0 00-13.3-9.562l.008-.012a5.047 5.047 0 012.6-9.371H52.891c.628 0 1.282-.014 1.938-.027a94.342 94.342 0 012.083-.029h.329a4.89 4.89 0 01.384-.015 5.95 5.95 0 000-11.9H42.24v36.857H14.954A14.953 14.953 0 014.381 21.452q.5-.5 1.043-.949A13.6 13.6 0 0117.149 0H57.629a16.031 16.031 0 0111.025 4.376A16.015 16.015 0 0179.679.019h15.127a16.051 16.051 0 0116.079 16.061v15.291a16.092 16.092 0 01-6.055 12.573 10.081 10.081 0 006.055 2.988V57.11c-7.229-.244-10.785-3.644-14.285-6.996zm-85.061-21.5a4.822 4.822 0 003.41 8.231h17.187v-9.64H14.954a4.808 4.808 0 00-3.41 1.411zm2.14-15.014a3.472 3.472 0 003.372 3.469h15.09v-6.936H17.149a3.471 3.471 0 00-3.47 3.467z" fill="#fff"/></svg>